#!OML:ASF G:\JayActor3\Patient Classification 1\Patient 1\Session 5\male.ASF
:FULLY-SPECIFIED
:DEGREES
560
root -5.11666 18.1304 -3.97879 576.61 84.1954 560.484
lowerback 21.6529 -2.35641 4.10665
upperback 9.03277 -1.57013 -0.765554
thorax -2.38832 -0.380086 -2.80211
lowerneck 3.99953 -1.23734 2.31878
upperneck -22.2653 -0.277739 2.98287
head -7.49099 -0.330789 0.572116
rclavicle 2.22639e-014 3.4191e-014
rhumerus -31.7653 0.0983224 -90.3329
rradius 29.0739
rwrist 4.05847
rhand -21.5333 -9.68873
rfingers 7.12502
rthumb 4.85943 -39.613
lclavicle 2.22639e-014 3.4191e-014
lhumerus -36.2794 4.28372 83.2403
lradius 32.5756
lwrist 22.5543
lhand -19.8842 14.641
lfingers 7.12502
lthumb 6.45165 44.5228
rfemur -28.981 0.52417 27.1527
rtibia 34.4371
rfoot 0.83352 -10.7084
rtoes -7.62433
lfemur -41.5852 6.40963 -17.4975
ltibia 60.3842
lfoot 17.4342 0.746012
ltoes -27.0169
561
root -4.9914 18.1261 -3.98255 577.758 84.296 561.661
lowerback 21.6944 -2.30423 4.09739
upperback 9.0459 -1.50231 -0.77557
thorax -2.38958 -0.346101 -2.82317
lowerneck 3.99869 -1.22688 2.31389
upperneck -22.268 -0.261668 2.98949
head -7.49176 -0.322992 0.573864
rclavicle -1.35174e-014 -2.98177e-014
rhumerus -31.7569 0.0481002 -90.287
rradius 29.0329
rwrist 4.07183
rhand -21.4675 -9.80223
rfingers 7.12502
rthumb 4.923 -39.725
lclavicle -1.35174e-014 -2.98177e-014
lhumerus -36.3516 4.36191 83.2452
lradius 32.3971
lwrist 22.5479
lhand -19.8471 14.6639
lfingers 7.12502
lthumb 6.48744 44.5445
rfemur -28.5512 0.312104 27.3497
rtibia 34.5178
rfoot 0.720333 -10.6623
rtoes -7.91442
lfemur -42.5613 6.64777 -17.6876
ltibia 59.8185
lfoot 17.2867 0.73528
ltoes -27.1701
562
root -4.86547 18.1228 -3.98683 578.878 84.3993 562.805
lowerback 21.7326 -2.25474 4.08089
upperback 9.058 -1.43982 -0.787343
thorax -2.39057 -0.314961 -2.8408
lowerneck 4.00008 -1.21853 2.31033
upperneck -22.2633 -0.248543 2.99892
head -7.49049 -0.317144 0.576534
rclavicle 3.08116e-014 2.70347e-014
rhumerus -31.7507 -0.000423539 -90.2436
rradius 29.0072
rwrist 4.06621
rhand -21.3957 -9.90669
rfingers 7.12502
rthumb 4.99226 -39.8279
lclavicle 3.08116e-014 2.70347e-014
lhumerus -36.4108 4.44491 83.2512
lradius 32.1993
lwrist 22.5527
lhand -19.8323 14.7113
lfingers 7.12502
lthumb 6.50168 44.5915
rfemur -28.1051 0.107316 27.5281
rtibia 34.5627
rfoot 0.599688 -10.6472
rtoes -8.1189
lfemur -43.4835 6.87907 -17.8984
ltibia 59.1285
lfoot 17.2171 0.726553
ltoes -27.2604
563
root -4.73881 18.1207 -3.99164 580.009 84.5007 563.959
lowerback 21.7703 -2.20881 4.06334
upperback 9.06977 -1.38218 -0.798589
thorax -2.39205 -0.286272 -2.85617
lowerneck 4.00008 -1.21089 2.30731
upperneck -22.2486 -0.236878 3.01035
head -7.48567 -0.312311 0.579845
rclavicle -1.19271e-015 -1.19271e-015
rhumerus -31.746 -0.04865 -90.2019
rradius 28.9918
rwrist 4.05268
rhand -21.336 -10.0018
rfingers 7.12502
rthumb 5.04991 -39.9216
lclavicle -1.19271e-015 -1.19271e-015
lhumerus -36.46 4.5281 83.26
lradius 31.9907
lwrist 22.5631
lhand -19.828 14.7836
lfingers 7.12502
lthumb 6.50588 44.6637
rfemur -27.6325 -0.0964855 27.6973
rtibia 34.5644
rfoot 0.486793 -10.6698
rtoes -8.25859
lfemur -44.3451 7.10434 -18.1234
ltibia 58.3155
lfoot 17.2302 0.69518
ltoes -27.2756
564
root -4.61135 18.1197 -3.99684 581.166 84.5974 565.136
lowerback 21.8082 -2.16695 4.04797
upperback 9.08048 -1.32943 -0.809688
thorax -2.39518 -0.260033 -2.8715
lowerneck 4.00215 -1.20178 2.30755
upperneck -22.2283 -0.223141 3.02228
head -7.47941 -0.306892 0.58261
rclavicle 1.78906e-014 -5.56597e-015
rhumerus -31.7423 -0.0998671 -90.1644
rradius 28.9787
rwrist 4.02664
rhand -21.3027 -10.0729
rfingers 7.12502
rthumb 5.08206 -39.992
lclavicle 1.78906e-014 -5.56597e-015
lhumerus -36.5012 4.60627 83.2693
lradius 31.7758
lwrist 22.5722
lhand -19.8198 14.868
lfingers 7.12502
lthumb 6.51374 44.7478
rfemur -27.1323 -0.294395 27.8603
rtibia 34.5201
rfoot 0.366374 -10.7295
rtoes -8.33916
lfemur -45.1464 7.32766 -18.3597
ltibia 57.3864
lfoot 17.3121 0.644646
ltoes -27.2208
565
root -4.48302 18.1197 -4.0025 582.382 84.6859 566.372
lowerback 21.8433 -2.12874 4.04019
upperback 9.09117 -1.27998 -0.81853
thorax -2.39722 -0.235291 -2.88801
lowerneck 4.00022 -1.19045 2.30991
upperneck -22.2014 -0.206977 3.03233
head -7.47028 -0.300267 0.58417
rclavicle 1.19271e-015 -3.02153e-014
rhumerus -31.7364 -0.155895 -90.1285
rradius 28.964
rwrist 4.008
rhand -21.2928 -10.1336
rfingers 7.12502
rthumb 5.09164 -40.0524
lclavicle 1.19271e-015 -3.02153e-014
lhumerus -36.5365 4.6707 83.2833
lradius 31.5651
lwrist 22.5702
lhand -19.7986 14.9505
lfingers 7.12502
lthumb 6.53422 44.8297
rfemur -26.6044 -0.478256 28.0196
rtibia 34.4292
rfoot 0.245877 -10.8253
rtoes -8.37958
lfemur -45.8892 7.54774 -18.6023
ltibia 56.3495
lfoot 17.4458 0.57797
ltoes -27.1849
566
root -4.35378 18.1202 -4.00876 583.66 84.7619 567.667
lowerback 21.8745 -2.09591 4.04756
upperback 9.09992 -1.23478 -0.825258
thorax -2.39991 -0.212493 -2.90993
lowerneck 3.99918 -1.17491 2.31343
upperneck -22.1714 -0.185735 3.03872
head -7.46031 -0.290984 0.583946
rclavicle 3.97569e-016 3.18055e-014
rhumerus -31.7283 -0.216651 -90.0946
rradius 28.9405
rwrist 4.00433
rhand -21.3077 -10.1791
rfingers 7.12502
rthumb 5.07723 -40.0983
lclavicle 3.97569e-016 3.18055e-014
lhumerus -36.5701 4.7165 83.3036
lradius 31.3658
lwrist 22.5516
lhand -19.7719 15.0428
lfingers 7.12502
lthumb 6.56004 44.9212
rfemur -26.0521 -0.650649 28.1771
rtibia 34.2944
rfoot 0.1252 -10.9437
rtoes -8.4311
lfemur -46.5781 7.7614 -18.8482
ltibia 55.2167
lfoot 17.6208 0.48502
ltoes -27.2458
567
root -4.22358 18.1208 -4.01574 585.022 84.8254 569.043
lowerback 21.8985 -2.06858 4.07188
upperback 9.10832 -1.19369 -0.82911
thorax -2.39985 -0.191425 -2.93751
lowerneck 3.99538 -1.15439 2.3138
upperneck -22.1387 -0.158725 3.04205
head -7.44897 -0.278323 0.582787
rclavicle -3.97569e-015 -7.55382e-015
rhumerus -31.714 -0.282731 -90.0609
rradius 28.9081
rwrist 4.02061
rhand -21.3387 -10.212
rfingers 7.12502
rthumb 5.04734 -40.1319
lclavicle -3.97569e-015 -7.55382e-015
lhumerus -36.6007 4.74813 83.3297
lradius 31.1836
lwrist 22.5088
lhand -19.728 15.1375
lfingers 7.12502
lthumb 6.60238 45.0145
rfemur -25.4793 -0.799595 28.3318
rtibia 34.1196
rfoot 0.00502931 -11.0792
rtoes -8.48541
lfemur -47.2168 7.96796 -19.0935
ltibia 53.9989
lfoot 17.8351 0.366545
ltoes -27.4367
568
root -4.09234 18.1213 -4.02356 586.468 84.8759 570.497
lowerback 21.9157 -2.04695 4.11681
upperback 9.11539 -1.15641 -0.832375
thorax -2.39831 -0.171885 -2.97538
lowerneck 3.98628 -1.1302 2.31533
upperneck -22.1002 -0.127958 3.04023
head -7.4348 -0.263388 0.57942
rclavicle -9.14409e-015 -5.56597e-015
rhumerus -31.6956 -0.359304 -90.0283
rradius 28.8689
rwrist 4.05781
rhand -21.3522 -10.2354
rfingers 7.12502
rthumb 5.03432 -40.1556
lclavicle -9.14409e-015 -5.56597e-015
lhumerus -36.6288 4.76903 83.3555
lradius 31.0201
lwrist 22.4478
lhand -19.6955 15.2455
lfingers 7.12502
lthumb 6.63379 45.1216
rfemur -24.8892 -0.922278 28.4829
rtibia 33.9108
rfoot -0.108352 -11.2257
rtoes -8.5618
lfemur -47.8064 8.16239 -19.3342
ltibia 52.7065
lfoot 18.085 0.235936
ltoes -27.7373
